<svg width="48" height="48" viewBox="0 0 48 48" fill="none" xmlns="http://www.w3.org/2000/svg">
<g clip-path="url(#clip0_91_1732)">
<path d="M33 32C33 32.2652 32.8946 32.5196 32.7071 32.7071C32.5196 32.8946 32.2652 33 32 33H16C15.7348 33 15.4804 32.8946 15.2929 32.7071C15.1054 32.5196 15 32.2652 15 32V21.49C14.9999 21.3376 15.0346 21.1872 15.1015 21.0503C15.1684 20.9134 15.2657 20.7936 15.386 20.7L23.386 14.478C23.5615 14.3414 23.7776 14.2673 24 14.2673C24.2224 14.2673 24.4385 14.3414 24.614 14.478L32.614 20.7C32.7343 20.7936 32.8316 20.9134 32.8985 21.0503C32.9654 21.1872 33.0001 21.3376 33 21.49V32V32ZM23 25V31H25V25H23Z" fill="white"/>
</g>
<defs>
<clipPath id="clip0_91_1732">
<rect width="24" height="24" fill="white" transform="translate(12 12)"/>
</clipPath>
</defs>
</svg>
