<svg width="82" height="12" viewBox="0 0 82 12" fill="none" xmlns="http://www.w3.org/2000/svg">
<path d="M7.74167 11.6429V3.33333H12.2214V0.309562H0V3.33333H4.47971V11.6429H7.74167ZM16.7889 0.309562H13.5269V11.6429H16.7889V0.309562ZM19.1757 0.309562V11.6429H22.1768V5.38103L27.7656 11.6429H30.5491V0.309562H27.548V6.5239L22.0898 0.309562H19.1757ZM36.9606 7.35721L40.7222 11.6429H44.9193L39.6785 5.73808L44.7232 0.309562H40.7655L36.9606 4.57147H36.0904V0.309562H32.937V11.6429H36.0904V7.35721H36.9606ZM51.4074 0C47.1669 0 44.6224 2.61904 44.6224 5.99995C44.6224 9.38097 47.1669 12 51.4074 12C55.6272 12 58.1708 9.38097 58.1708 5.99995C58.1708 2.61904 55.6272 0 51.4074 0ZM51.4074 9.23811C49.2985 9.23811 47.9494 7.85711 47.9494 5.99995C47.9494 4.14289 49.2985 2.78564 51.4074 2.78564C53.4956 2.78564 54.8655 4.14289 54.8655 5.99995C54.8655 7.85711 53.4956 9.23811 51.4074 9.23811ZM70.1288 0.309562H59.6688V11.6429H62.8214V7.69051H69.6725V5.19049H62.8214V3.19047H70.1288V0.309562ZM82 0.309562H71.5391V11.6429H74.6927V7.69051H81.5437V5.19049H74.6927V3.19047H82V0.309562Z" fill="white"/>
</svg>
