<svg width="49" height="40" viewBox="0 0 49 40" fill="none" xmlns="http://www.w3.org/2000/svg">
<path d="M30.5122 30.4725C30.5122 28.7843 32.6455 26.6946 37.1009 26.6946C37.3673 26.6946 37.6337 26.6946 37.8962 26.7206C37.5542 29.967 34.9915 32.1886 32.4864 32.1886C31.2856 32.1886 30.5122 31.6252 30.5122 30.4725ZM21.8697 12.73H21.9234L20.5316 25.5419C19.0288 25.0906 17.4952 24.7502 15.943 24.523L21.8697 12.73ZM12.2152 24.2553C8.90891 24.2553 5.44157 25.0864 3.65422 27.0682C2.65577 25.1709 2.15104 23.0508 2.18697 20.905C2.18697 15.1953 5.89487 9.88912 13.0164 6.52083L12.1098 4.59095C3.76158 8.39077 0 14.6599 0 20.905C0 23.8538 0.693865 26.6986 2.53291 29.3997C2.47968 29.7011 2.45306 30.0066 2.45338 30.3127C2.45338 32.5901 3.86696 34.2244 6.80147 34.2244C9.86919 34.2244 12.4816 32.1067 14.0562 27.9273H11.7619C10.6147 30.7142 8.74787 32.1646 6.80147 32.1646C5.28053 32.1646 4.6145 31.4674 4.6145 30.3167C4.6145 28.3328 7.0142 26.321 12.243 26.321C14.9861 26.3302 17.7114 26.7642 20.3229 27.6076L19.9511 31.1178H22.0844L24.0845 12.2226C25.3122 11.9612 26.5633 11.8273 27.8182 11.823C32.5123 11.823 33.7926 13.4852 33.7926 15.2812C33.7926 17.6666 31.8462 19.3267 27.178 19.8641L27.8719 13.4053L25.7386 13.4852L23.8717 31.1198H26.005L26.9375 22.1956C28.5274 21.7637 30.1638 21.5281 31.8104 21.4944C34.9577 21.4944 37.093 22.7809 37.7331 24.6908C37.5204 24.6693 37.3067 24.6607 37.093 24.6649C31.037 24.6649 28.3451 27.7735 28.3451 30.5084C28.3451 32.9198 30.1344 34.2603 32.4526 34.2603C35.8325 34.2603 39.4946 31.5253 40.0076 27.0502C41.5514 27.412 43.028 28.0192 44.3815 28.8483C40.7273 34.2883 33.3393 37.8524 24.4841 37.8524C20.136 37.8524 14.6964 36.9154 11.0959 34.4221L9.97456 36.2202C13.5234 38.7933 19.2036 40 24.4881 40C38.8644 40 49 31.4754 49 20.943C49 9.87514 37.9836 1.88792 24.5159 1.88792C23.6888 1.88792 23.1023 1.91389 22.3011 1.96784L22.5138 4.08551C23.154 4.05953 23.8479 4.03157 24.4881 4.03157C36.5164 4.03157 46.813 11.3215 46.813 20.943C46.818 23.06 46.342 25.1501 45.4213 27.0542C44.0614 26.1692 42.0872 25.3661 39.9798 24.9645C39.5265 22.3914 37.421 20.1938 33.3393 19.7703C34.1394 19.3269 34.8068 18.6764 35.272 17.8863C35.7374 17.0962 35.9838 16.1953 35.9856 15.2772C35.9856 11.9808 33.6654 9.75527 27.8242 9.75527C26.6538 9.75817 25.4855 9.85706 24.331 10.0509L24.5636 7.79143L22.4045 7.20208L20.5376 10.908C17.5236 11.787 14.5891 13.0796 12.8554 14.0705L13.8157 15.9205C15.5674 15.0169 17.3758 14.2287 19.2294 13.5611L13.8435 24.3093C13.2828 24.2813 12.748 24.2553 12.2152 24.2553ZM20.5654 5.0924C20.5654 2.76096 17.9252 0.669264 14.9986 0C14.705 1.20271 14.5423 2.43392 14.5135 3.67196C14.5135 6.94236 16.1935 7.9053 17.7681 7.9053C19.4441 7.9053 20.5635 6.78054 20.5635 5.0924H20.5654Z" fill="white"/>
</svg>
